<svg xmlns="http://www.w3.org/2000/svg" width="24" height="24" viewBox="0 0 24 24">
    <path data-name="Path 96606" d="M0 0h24v24H0z" style="fill:none"/>
    <path data-name="Path 96607" d="M19.121 13.879a3 3 0 1 1-4.243 0 3 3 0 0 1 4.243 0" style="stroke:#4791ff;stroke-linecap:round;stroke-linejoin:round;stroke-width:1.5px;fill:none"/>
    <path data-name="Path 96608" d="m21 20-1.88-1.88" style="stroke:#4791ff;stroke-linecap:round;stroke-linejoin:round;stroke-width:1.5px;fill:none"/>
    <path data-name="Path 96609" d="M7 13h4" style="stroke:#4791ff;stroke-linecap:round;stroke-linejoin:round;stroke-width:1.5px;fill:none"/>
    <path data-name="Path 96610" d="M7 9h8" style="stroke:#4791ff;stroke-linecap:round;stroke-linejoin:round;stroke-width:1.5px;fill:none"/>
    <path data-name="Path 96611" d="M19 10V7a3 3 0 0 0-3-3H6a3 3 0 0 0-3 3v9a3 3 0 0 0 3 3h5" style="stroke:#4791ff;stroke-linecap:round;stroke-linejoin:round;stroke-width:1.5px;fill:none"/>
</svg>
