<?xml version="1.0" encoding="iso-8859-1"?>
<!-- Generator: Adobe Illustrator 19.0.0, SVG Export Plug-In . SVG Version: 6.00 Build 0)  -->
<svg version="1.1" id="Capa_1" xmlns="http://www.w3.org/2000/svg" xmlns:xlink="http://www.w3.org/1999/xlink" x="0px" y="0px"
	 viewBox="0 0 553.397 553.397" style="enable-background:new 0 0 553.397 553.397;" xml:space="preserve">
<g>
	<g>
		<g>
			<path d="M289.8,454.333l-0.519,0.414C289.454,454.609,289.63,454.476,289.8,454.333z"/>
			<path d="M264.146,454.769c-0.193-0.151-0.366-0.291-0.56-0.447C263.768,454.476,263.958,454.62,264.146,454.769z"/>
			<path d="M321.404,283.71c-17.619,0-33.506,7.799-44.706,20.291v-0.002c-11.201-12.49-27.088-20.289-44.706-20.289
				c-33.922,0-61.423,28.909-61.423,64.569c0,19.584,8.296,37.131,21.392,48.973v0.004c0,0,71.991,57.361,72.184,57.512
				c3.458,2.721,7.81,4.354,12.551,4.354c4.757,0,9.119-1.642,12.582-4.376l72.153-57.492
				c13.098-11.842,21.392-29.393,21.392-48.977C382.827,312.619,355.328,283.71,321.404,283.71z"/>
		</g>
		<g>
			<path d="M468.306,72.335h-27.917V54.723C440.389,24.549,415.84,0,385.666,0c-30.174,0-54.723,24.549-54.723,54.723v17.612
				H222.454V54.723C222.454,24.549,197.905,0,167.731,0s-54.723,24.549-54.723,54.723v17.612H85.091
				c-26.976,0-48.924,21.946-48.924,48.922v383.216c0,26.976,21.946,48.924,48.924,48.924h383.216
				c26.976,0,48.924-21.946,48.924-48.924V121.255C517.231,94.281,495.285,72.335,468.306,72.335z M365.966,72.335V54.723
				c0-10.861,8.837-19.7,19.7-19.7c10.864,0,19.7,8.839,19.7,19.7v17.612v78.7c0,10.861-8.837,19.7-19.7,19.7
				c-10.864,0-19.7-8.839-19.7-19.7V72.335z M148.031,72.335V54.723c0-10.861,8.837-19.7,19.7-19.7c10.864,0,19.7,8.839,19.7,19.7
				v17.612v78.7c0,10.861-8.837,19.7-19.7,19.7c-10.864,0-19.7-8.839-19.7-19.7V72.335z M71.189,504.473V225.047h411.017v175.928
				L364.804,518.372H85.091C77.425,518.372,71.189,512.136,71.189,504.473z M468.306,518.372h-53.968l67.87-67.87v53.968
				C482.208,512.136,475.972,518.372,468.306,518.372z"/>
		</g>
	</g>
</g>
<g>
</g>
<g>
</g>
<g>
</g>
<g>
</g>
<g>
</g>
<g>
</g>
<g>
</g>
<g>
</g>
<g>
</g>
<g>
</g>
<g>
</g>
<g>
</g>
<g>
</g>
<g>
</g>
<g>
</g>
</svg>
